<svg width="299" height="119" viewBox="0 0 299 119" fill="none" xmlns="http://www.w3.org/2000/svg">
<path d="M33.336 90L15.048 67.608V90H4.968V39.744H15.048V62.28L33.336 39.744H45.504L24.768 64.656L46.08 90H33.336ZM89.7902 69.192C89.7902 70.632 89.6942 71.928 89.5022 73.08H60.3422C60.5822 75.96 61.5902 78.216 63.3662 79.848C65.1422 81.48 67.3262 82.296 69.9182 82.296C73.6622 82.296 76.3262 80.688 77.9102 77.472H88.7822C87.6302 81.312 85.4222 84.48 82.1582 86.976C78.8942 89.424 74.8862 90.648 70.1342 90.648C66.2942 90.648 62.8382 89.808 59.7662 88.128C56.7422 86.4 54.3662 83.976 52.6382 80.856C50.9582 77.736 50.1182 74.136 50.1182 70.056C50.1182 65.928 50.9582 62.304 52.6382 59.184C54.3182 56.064 56.6702 53.664 59.6942 51.984C62.7182 50.304 66.1982 49.464 70.1342 49.464C73.9262 49.464 77.3102 50.28 80.2862 51.912C83.3102 53.544 85.6382 55.872 87.2702 58.896C88.9502 61.872 89.7902 65.304 89.7902 69.192ZM79.3502 66.312C79.3022 63.72 78.3662 61.656 76.5422 60.12C74.7182 58.536 72.4862 57.744 69.8462 57.744C67.3502 57.744 65.2382 58.512 63.5102 60.048C61.8302 61.536 60.7982 63.624 60.4142 66.312H79.3502ZM135.308 50.112L110.612 108.864H99.8837L108.524 88.992L92.5397 50.112H103.844L114.14 77.976L124.58 50.112H135.308ZM162.845 49.536C167.597 49.536 171.437 51.048 174.365 54.072C177.293 57.048 178.757 61.224 178.757 66.6V90H168.677V67.968C168.677 64.8 167.885 62.376 166.301 60.696C164.717 58.968 162.557 58.104 159.821 58.104C157.037 58.104 154.829 58.968 153.197 60.696C151.613 62.376 150.821 64.8 150.821 67.968V90H140.741V50.112H150.821V55.08C152.165 53.352 153.869 52.008 155.933 51.048C158.045 50.04 160.349 49.536 162.845 49.536ZM221.66 70.5234C221.66 73.8281 221.273 76.7461 220.5 79.2773C219.75 81.7852 218.66 83.8828 217.23 85.5703C215.801 87.2812 214.055 88.5703 211.992 89.4375C209.93 90.3047 207.609 90.7383 205.031 90.7383C202.477 90.7383 200.168 90.3047 198.105 89.4375C196.043 88.5703 194.297 87.2812 192.867 85.5703C191.414 83.8828 190.289 81.7852 189.492 79.2773C188.719 76.7461 188.332 73.8281 188.332 70.5234V58.2891C188.332 54.9844 188.719 52.0781 189.492 49.5703C190.266 47.0391 191.379 44.918 192.832 43.207C194.262 41.5195 195.996 40.2422 198.035 39.375C200.098 38.5078 202.406 38.0742 204.961 38.0742C207.539 38.0742 209.859 38.5078 211.922 39.375C213.984 40.2422 215.742 41.5195 217.195 43.207C218.625 44.918 219.727 47.0391 220.5 49.5703C221.273 52.0781 221.66 54.9844 221.66 58.2891V70.5234ZM198.176 66.3047L211.816 56.1445C211.77 54.2227 211.559 52.582 211.184 51.2227C210.832 49.8398 210.305 48.7383 209.602 47.918C209.062 47.2617 208.395 46.7812 207.598 46.4766C206.824 46.1484 205.945 45.9844 204.961 45.9844C203.859 45.9844 202.887 46.1953 202.043 46.6172C201.223 47.0156 200.531 47.625 199.969 48.4453C199.359 49.3125 198.902 50.4375 198.598 51.8203C198.316 53.2031 198.176 54.8438 198.176 56.7422V62.4023C198.176 63.5273 198.176 64.2773 198.176 64.6523C198.176 65.0273 198.176 65.5781 198.176 66.3047ZM211.816 72V66.0586C211.816 65.2852 211.816 64.7227 211.816 64.3711C211.816 63.9961 211.816 63.4688 211.816 62.7891L198.176 72.9141C198.223 74.4609 198.375 75.832 198.633 77.0273C198.914 78.2227 199.301 79.2188 199.793 80.0156C200.355 80.9766 201.07 81.6914 201.938 82.1602C202.805 82.6289 203.836 82.8633 205.031 82.8633C206.133 82.8633 207.105 82.6641 207.949 82.2656C208.793 81.8438 209.496 81.2109 210.059 80.3672C210.645 79.4766 211.078 78.3398 211.359 76.957C211.664 75.5508 211.816 73.8984 211.816 72ZM243.321 58.392V77.688C243.321 79.032 243.633 80.016 244.257 80.64C244.929 81.216 246.033 81.504 247.569 81.504H252.249V90H245.913C237.417 90 233.169 85.872 233.169 77.616V58.392H228.417V50.112H233.169V40.248H243.321V50.112H252.249V58.392H243.321ZM296.579 69.192C296.579 70.632 296.483 71.928 296.291 73.08H267.131C267.371 75.96 268.379 78.216 270.155 79.848C271.931 81.48 274.115 82.296 276.707 82.296C280.451 82.296 283.115 80.688 284.699 77.472H295.571C294.419 81.312 292.211 84.48 288.947 86.976C285.683 89.424 281.675 90.648 276.923 90.648C273.083 90.648 269.627 89.808 266.555 88.128C263.531 86.4 261.155 83.976 259.427 80.856C257.747 77.736 256.907 74.136 256.907 70.056C256.907 65.928 257.747 62.304 259.427 59.184C261.107 56.064 263.459 53.664 266.483 51.984C269.507 50.304 272.987 49.464 276.923 49.464C280.715 49.464 284.099 50.28 287.075 51.912C290.099 53.544 292.427 55.872 294.059 58.896C295.739 61.872 296.579 65.304 296.579 69.192ZM286.139 66.312C286.091 63.72 285.155 61.656 283.331 60.12C281.507 58.536 279.275 57.744 276.635 57.744C274.139 57.744 272.027 58.512 270.299 60.048C268.619 61.536 267.587 63.624 267.203 66.312H286.139Z" fill="white"/>
<path d="M219.366 35.6749C220.454 34.7078 220.457 32.9981 219.257 32.1739C217.684 31.0938 215.954 30.2013 214.11 29.5224C211.381 28.5173 208.455 28 205.5 28C202.545 28 199.619 28.5173 196.89 29.5224C195.046 30.2013 193.316 31.0938 191.743 32.174C190.543 32.9981 190.546 34.7078 191.634 35.6749C192.555 36.4937 193.934 36.4773 194.952 35.7829C196.151 34.9651 197.468 34.2885 198.87 33.7723C200.972 32.9983 203.225 32.6 205.5 32.6C207.775 32.6 210.028 32.9983 212.13 33.7723C213.532 34.2885 214.849 34.9651 216.048 35.7829C217.066 36.4773 218.445 36.4936 219.366 35.6749Z" fill="white"/>
<path d="M224.899 26.1492C225.874 24.8993 225.541 23.071 224.125 22.3578C218.566 19.5587 212.269 18.0513 205.831 18.0013C199.387 17.9512 193.055 19.3631 187.438 22.08C186.015 22.7683 185.651 24.5844 186.6 25.8481C187.404 26.9182 188.878 27.2067 190.08 26.6179C194.866 24.2736 200.275 23.0544 205.78 23.0972C211.283 23.14 216.665 24.4422 221.403 26.859C222.596 27.4677 224.074 27.2051 224.899 26.1492Z" fill="white"/>
<path d="M229.066 14.1966C230.002 12.4563 229.228 10.2814 227.36 9.63651C220.357 7.21893 212.881 5.98124 205.329 6.00021C197.779 6.01919 190.314 7.29357 183.33 9.74467C181.463 10.3998 180.7 12.5821 181.648 14.3186C182.466 15.8159 184.279 16.4438 185.886 15.8722C192.059 13.6769 198.667 12.5352 205.35 12.5184C212.034 12.5016 218.649 13.6101 224.837 15.7744C226.447 16.3377 228.257 15.6992 229.066 14.1966Z" fill="white"/>
</svg>
