<svg width="300" height="300" viewBox="0 0 300 300" fill="none" xmlns="http://www.w3.org/2000/svg">
<g clip-path="url(#clip0_23_26)">
<rect width="300" height="300" fill="black"/>
<path d="M198.665 252.625C206.217 248.837 208.803 239.257 203.315 232.835C196.121 224.418 187.763 216.816 178.446 210.24C164.652 200.505 149.027 193.21 132.463 188.772C115.899 184.333 98.72 182.839 81.907 184.373C70.5503 185.409 59.5108 187.813 49.0721 191.506C41.1078 194.324 38.5577 203.913 43.204 210.969C47.1378 216.942 54.8932 218.922 61.6437 216.558C69.5925 213.775 77.9898 211.96 86.6252 211.172C99.5712 209.991 112.799 211.142 125.553 214.559C138.308 217.977 150.339 223.594 160.96 231.09C168.044 236.09 174.409 241.86 179.901 248.245C184.565 253.668 192.272 255.831 198.665 252.625Z" fill="white"/>
<path d="M243.991 207.535C251.339 201.994 252.216 191.244 245.348 185.118C218.392 161.078 185.355 143.168 149.338 133.217C113.29 123.257 75.6734 121.661 40.101 128.454C31.0896 130.175 26.3198 139.808 29.745 148.319C32.6454 155.526 40.4704 159.356 48.0938 157.861C78.4481 151.909 110.6 153.198 141.397 161.708C172.185 170.214 200.397 185.598 223.326 206.263C229.101 211.468 237.784 212.217 243.991 207.535Z" fill="white"/>
<path d="M285.305 146.789C293.168 138.44 292.094 125.084 282.591 118.663C246.965 94.5909 206.916 76.4233 164.55 65.1854C122.199 53.9513 78.4369 49.8825 35.5985 53.1312C24.1487 53.9995 16.5941 65.0876 19.3013 76.2466C21.6355 85.8682 30.8554 92.1115 40.7245 91.3216C78.6288 88.2879 117.386 91.8128 154.879 101.758C192.373 111.704 227.792 127.855 259.229 149.282C267.411 154.859 278.516 153.998 285.305 146.789Z" fill="white"/>
</g>
<defs>
<clipPath id="clip0_23_26">
<rect width="300" height="300" fill="white"/>
</clipPath>
</defs>
</svg>
