<svg width="300" height="300" viewBox="0 0 300 300" fill="none" xmlns="http://www.w3.org/2000/svg">
<rect width="300" height="300" fill="black"/>
<path d="M189.577 194.349C189.577 202.125 188.667 208.991 186.847 214.947C185.082 220.847 182.518 225.783 179.154 229.754C175.79 233.779 171.682 236.812 166.829 238.853C161.976 240.893 156.516 241.914 150.45 241.914C144.439 241.914 139.007 240.893 134.154 238.853C129.301 236.812 125.193 233.779 121.829 229.754C118.41 225.783 115.763 220.847 113.888 214.947C112.068 208.991 111.158 202.125 111.158 194.349V165.562C111.158 157.787 112.068 150.949 113.888 145.048C115.707 139.092 118.327 134.101 121.746 130.075C125.11 126.105 129.191 123.099 133.989 121.059C138.842 119.018 144.274 117.998 150.285 117.998C156.351 117.998 161.81 119.018 166.663 121.059C171.516 123.099 175.652 126.105 179.071 130.075C182.435 134.101 185.027 139.092 186.847 145.048C188.667 150.949 189.577 157.787 189.577 165.562V194.349ZM134.32 184.423L166.415 160.517C166.305 155.994 165.809 152.134 164.926 148.936C164.099 145.682 162.858 143.09 161.204 141.16C159.935 139.616 158.364 138.485 156.489 137.768C154.669 136.996 152.601 136.61 150.285 136.61C147.693 136.61 145.404 137.107 143.419 138.099C141.489 139.037 139.862 140.471 138.538 142.401C137.104 144.441 136.029 147.088 135.312 150.342C134.65 153.596 134.32 157.456 134.32 161.923V175.241C134.32 177.888 134.32 179.653 134.32 180.535C134.32 181.417 134.32 182.713 134.32 184.423ZM166.415 197.824V183.844C166.415 182.024 166.415 180.7 166.415 179.873C166.415 178.991 166.415 177.75 166.415 176.151L134.32 199.974C134.43 203.614 134.788 206.84 135.395 209.653C136.057 212.465 136.967 214.809 138.125 216.684C139.448 218.945 141.13 220.627 143.171 221.73C145.211 222.833 147.638 223.384 150.45 223.384C153.042 223.384 155.331 222.915 157.316 221.978C159.301 220.985 160.956 219.496 162.279 217.511C163.658 215.415 164.678 212.741 165.34 209.487C166.057 206.178 166.415 202.29 166.415 197.824Z" fill="white"/>
<path d="M182.708 111.823C185.268 109.548 185.275 105.525 182.452 103.586C178.752 101.044 174.681 98.9443 170.342 97.3468C163.919 94.9819 157.035 93.7647 150.082 93.7647C143.13 93.7647 136.246 94.9819 129.823 97.3469C125.484 98.9443 121.413 101.044 117.713 103.586C114.89 105.525 114.897 109.548 117.457 111.823C119.624 113.75 122.869 113.711 125.265 112.077C128.085 110.153 131.183 108.561 134.482 107.346C139.428 105.525 144.729 104.588 150.082 104.588C155.436 104.588 160.737 105.525 165.682 107.346C168.981 108.561 172.079 110.153 174.9 112.077C177.296 113.711 180.54 113.75 182.708 111.823Z" fill="#D9D9D9"/>
<path d="M182.708 111.823C185.268 109.548 185.275 105.525 182.452 103.586C178.752 101.044 174.681 98.9443 170.342 97.3468C163.919 94.9819 157.035 93.7647 150.082 93.7647C143.13 93.7647 136.246 94.9819 129.823 97.3469C125.484 98.9443 121.413 101.044 117.713 103.586C114.89 105.525 114.897 109.548 117.457 111.823C119.624 113.75 122.869 113.711 125.265 112.077C128.085 110.153 131.183 108.561 134.482 107.346C139.428 105.525 144.729 104.588 150.082 104.588C155.436 104.588 160.737 105.525 165.682 107.346C168.981 108.561 172.079 110.153 174.9 112.077C177.296 113.711 180.54 113.75 182.708 111.823Z" fill="white"/>
<path d="M195.726 89.4099C198.022 86.4689 197.238 82.167 193.905 80.4889C180.827 73.9029 166.01 70.356 150.861 70.2383C135.7 70.1205 120.801 73.4426 107.584 79.8354C104.235 81.4549 103.378 85.7279 105.613 88.7014C107.505 91.2193 110.971 91.8981 113.799 90.5128C125.062 84.9967 137.788 82.1281 150.741 82.2287C163.69 82.3294 176.353 85.3934 187.5 91.08C190.308 92.5123 193.787 91.8944 195.726 89.4099Z" fill="white"/>
<path d="M205.531 61.2861C207.734 57.1914 205.912 52.0738 201.517 50.5565C185.04 44.8681 167.45 41.9559 149.68 42.0005C131.916 42.0451 114.352 45.0437 97.9167 50.811C93.524 52.3524 91.7291 57.4873 93.9601 61.5732C95.8838 65.0962 100.15 66.5736 103.931 65.2287C118.457 60.0634 134.004 57.377 149.73 57.3374C165.457 57.2979 181.022 59.9062 195.581 64.9986C199.371 66.3241 203.629 64.8216 205.531 61.2861Z" fill="white"/>
</svg>
